<svg viewBox="0 0 150 150" xmlns="http://www.w3.org/2000/svg" data-dna="0x1591d0f32619661ea6aa899591b525c9331900edfd3413348faa328eba525b25" data-fusion-mass="1" shape-rendering="crispEdges" image-rendering="pixelated"><rect id="sky" width="100%" height="100%" fill="oklch(0.6 0.32 295)"/><rect id="ground" y="115" width="100%" height="35" fill="oklch(from oklch(0.6 0.32 295) calc(l * 0.75) calc(c * 0.85) h)"/><path id="body" fill="oklch(0.75 0.25 170)" d="M105 95H45V81.5h3.333v-2.75h3.334V75h43v3.75h6.666v2.75H105V95z"/><path id="tail" fill="oklch(0.75 0.25 170)" d="M96 82v-3h-3v-6h-3V61h3v-3h3v-3h3v-3h3v-3h3v6h-3v3h-3v3h-3v12h3v3h3v3h3v6h-6v-3z"/><path id="leg4" fill="oklch(0.75 0.25 170)" d="M64.5 115H71v-3.344h3.25V95H64.5z"/><path id="leg3" fill="oklch(0.75 0.25 170)" d="M93.5 115h6.5v-3.344h3.25V95H93.5z"/><path id="leg2" fill="oklch(0.75 0.25 170)" d="M79 115h6.5v-3.344h3.25V95H79z"/><path id="leg1" fill="oklch(0.75 0.25 170)" d="M45 115h6.5v-3.344h3.25V95H45z"/><path id="eye1" fill="oklch(0.84 0.27 120)" d="M42.66 63.738h4v8h-4z"/><path id="eye2" fill="oklch(0.84 0.27 120)" d="M68.33 63.738h4v8h-4z"/><path id="mouth" fill="oklch(0.84 0.27 120)" d="M52.33 73.475h10v4h-10z"/><path id="head" fill="oklch(0 0 0)" d="M42.66 70.393h3.22v-6.655h-3.22v6.655zm19.25 6.328v-3.246h-9.58v3.246h9.58zm9.64-12.983h-3.22v6.655h3.22zM39.44 80.295v-3.574h-3.22v-3.246H33V57.082h3.22v-6.721h3.22v-6.672h3.22v-3.361h3.22v3.361h3.23v3.327h3.22v3.345h9.58v-3.345h3.22v-3.327h3.2v-3.361h3.22v3.361h3.22v6.672h3.22v6.721h3.22v16.393h-3.22v3.246h-3.22v3.574H71.55v3H42.66v-3H39.44z"/><text id="toy" data-toyName="watermelon" x="27.5" y="97.5" text-anchor="middle" dominant-baseline="central" font-size="20">🍉</text></svg>